<svg width="28" height="28" viewBox="0 0 28 28" fill="none" xmlns="http://www.w3.org/2000/svg">
<g id="list_alt">
<mask id="mask0_66_1808" style="mask-type:alpha" maskUnits="userSpaceOnUse" x="0" y="0" width="28" height="28">
<rect id="Bounding box" width="28" height="28" fill="#D9D9D9"/>
</mask>
<g mask="url(#mask0_66_1808)">
<path id="list_alt_2" d="M9.33333 19.8333C9.66389 19.8333 9.94097 19.7215 10.1646 19.4979C10.3882 19.2743 10.5 18.9972 10.5 18.6667C10.5 18.3361 10.3882 18.059 10.1646 17.8354C9.94097 17.6118 9.66389 17.5 9.33333 17.5C9.00278 17.5 8.72569 17.6118 8.50208 17.8354C8.27847 18.059 8.16667 18.3361 8.16667 18.6667C8.16667 18.9972 8.27847 19.2743 8.50208 19.4979C8.72569 19.7215 9.00278 19.8333 9.33333 19.8333ZM9.33333 15.1667C9.66389 15.1667 9.94097 15.0549 10.1646 14.8313C10.3882 14.6076 10.5 14.3306 10.5 14C10.5 13.6694 10.3882 13.3924 10.1646 13.1687C9.94097 12.9451 9.66389 12.8333 9.33333 12.8333C9.00278 12.8333 8.72569 12.9451 8.50208 13.1687C8.27847 13.3924 8.16667 13.6694 8.16667 14C8.16667 14.3306 8.27847 14.6076 8.50208 14.8313C8.72569 15.0549 9.00278 15.1667 9.33333 15.1667ZM9.33333 10.5C9.66389 10.5 9.94097 10.3882 10.1646 10.1646C10.3882 9.94097 10.5 9.66389 10.5 9.33333C10.5 9.00278 10.3882 8.72569 10.1646 8.50208C9.94097 8.27847 9.66389 8.16667 9.33333 8.16667C9.00278 8.16667 8.72569 8.27847 8.50208 8.50208C8.27847 8.72569 8.16667 9.00278 8.16667 9.33333C8.16667 9.66389 8.27847 9.94097 8.50208 10.1646C8.72569 10.3882 9.00278 10.5 9.33333 10.5ZM12.8333 19.8333H19.8333V17.5H12.8333V19.8333ZM12.8333 15.1667H19.8333V12.8333H12.8333V15.1667ZM12.8333 10.5H19.8333V8.16667H12.8333V10.5ZM5.83333 24.5C5.19167 24.5 4.64236 24.2715 4.18542 23.8146C3.72847 23.3576 3.5 22.8083 3.5 22.1667V5.83333C3.5 5.19167 3.72847 4.64236 4.18542 4.18542C4.64236 3.72847 5.19167 3.5 5.83333 3.5H22.1667C22.8083 3.5 23.3576 3.72847 23.8146 4.18542C24.2715 4.64236 24.5 5.19167 24.5 5.83333V22.1667C24.5 22.8083 24.2715 23.3576 23.8146 23.8146C23.3576 24.2715 22.8083 24.5 22.1667 24.5H5.83333Z" fill="#00B368"/>
</g>
</g>
</svg>
